<mxfile host="app.diagrams.net" modified="2021-10-15T07:17:12.641Z" agent="5.0 (Windows NT 10.0; Win64; x64) AppleWebKit/537.36 (KHTML, like Gecko) Chrome/94.0.4606.81 Safari/537.36" etag="uIskvCtk1HLBcns0bKU0" version="15.5.2" type="github">
  <diagram id="-ACH_cBtJqTkqqAuy_c_" name="Page-1">
    <mxGraphModel dx="1209" dy="652" grid="1" gridSize="10" guides="1" tooltips="1" connect="1" arrows="1" fold="1" page="1" pageScale="1" pageWidth="827" pageHeight="1169" math="0" shadow="0">
      <root>
        <mxCell id="0" />
        <mxCell id="1" parent="0" />
        <mxCell id="CVCE-VI5YOW8EWNLWMZx-1" value="" style="fontColor=#0066CC;verticalAlign=top;verticalLabelPosition=bottom;labelPosition=center;align=center;html=1;outlineConnect=0;fillColor=#CCCCCC;strokeColor=#6881B3;gradientColor=none;gradientDirection=north;strokeWidth=2;shape=mxgraph.networks.server;" vertex="1" parent="1">
          <mxGeometry x="590" y="114.13" width="60" height="87.5" as="geometry" />
        </mxCell>
        <mxCell id="CVCE-VI5YOW8EWNLWMZx-2" value="" style="fontColor=#0066CC;verticalAlign=top;verticalLabelPosition=bottom;labelPosition=center;align=center;html=1;outlineConnect=0;fillColor=#CCCCCC;strokeColor=#6881B3;gradientColor=none;gradientDirection=north;strokeWidth=2;shape=mxgraph.networks.mobile;" vertex="1" parent="1">
          <mxGeometry x="160" y="131" width="40" height="73.75" as="geometry" />
        </mxCell>
        <mxCell id="CVCE-VI5YOW8EWNLWMZx-3" value="Client" style="text;html=1;strokeColor=none;fillColor=none;align=center;verticalAlign=middle;whiteSpace=wrap;rounded=0;" vertex="1" parent="1">
          <mxGeometry x="150" y="218.5" width="60" height="30" as="geometry" />
        </mxCell>
        <mxCell id="CVCE-VI5YOW8EWNLWMZx-4" value="server" style="text;html=1;strokeColor=none;fillColor=none;align=center;verticalAlign=middle;whiteSpace=wrap;rounded=0;" vertex="1" parent="1">
          <mxGeometry x="590" y="218.5" width="60" height="30" as="geometry" />
        </mxCell>
        <mxCell id="CVCE-VI5YOW8EWNLWMZx-5" value="" style="rounded=0;whiteSpace=wrap;html=1;strokeColor=#82b366;strokeWidth=1;fillColor=#d5e8d4;" vertex="1" parent="1">
          <mxGeometry x="240" y="101" width="310" height="159" as="geometry" />
        </mxCell>
        <mxCell id="CVCE-VI5YOW8EWNLWMZx-6" value="Connection establishment with four packets" style="text;html=1;strokeColor=none;fillColor=none;align=center;verticalAlign=middle;whiteSpace=wrap;rounded=0;fontStyle=1" vertex="1" parent="1">
          <mxGeometry x="240" y="70" width="300" height="30" as="geometry" />
        </mxCell>
        <mxCell id="CVCE-VI5YOW8EWNLWMZx-7" value="SYN: 1" style="rounded=0;whiteSpace=wrap;html=1;strokeColor=#7EA6E0;strokeWidth=2;" vertex="1" parent="1">
          <mxGeometry x="335" y="121" width="120" height="20" as="geometry" />
        </mxCell>
        <mxCell id="CVCE-VI5YOW8EWNLWMZx-8" value="" style="endArrow=classic;html=1;rounded=0;edgeStyle=orthogonalEdgeStyle;strokeColor=#7EA6E0;strokeWidth=2;" edge="1" parent="1">
          <mxGeometry x="150" y="70" as="geometry">
            <mxPoint x="454.75" y="131" as="sourcePoint" />
            <mxPoint x="509.75" y="130.5" as="targetPoint" />
            <Array as="points">
              <mxPoint x="474.75" y="131" />
              <mxPoint x="474.75" y="131" />
            </Array>
          </mxGeometry>
        </mxCell>
        <mxCell id="CVCE-VI5YOW8EWNLWMZx-9" value="" style="line;strokeWidth=2;html=1;labelBorderColor=#3399FF;strokeColor=#7EA6E0;" vertex="1" parent="1">
          <mxGeometry x="264" y="126" width="70" height="10" as="geometry" />
        </mxCell>
        <mxCell id="CVCE-VI5YOW8EWNLWMZx-10" value="ACK: 1" style="rounded=0;whiteSpace=wrap;html=1;strokeColor=#7EA6E0;strokeWidth=2;" vertex="1" parent="1">
          <mxGeometry x="335" y="157.88" width="120" height="20" as="geometry" />
        </mxCell>
        <mxCell id="CVCE-VI5YOW8EWNLWMZx-11" value="" style="endArrow=none;html=1;rounded=0;edgeStyle=orthogonalEdgeStyle;strokeColor=#7EA6E0;strokeWidth=2;endFill=0;" edge="1" parent="1">
          <mxGeometry x="150" y="70" as="geometry">
            <mxPoint x="454.75" y="167.88" as="sourcePoint" />
            <mxPoint x="509.75" y="167.38" as="targetPoint" />
            <Array as="points">
              <mxPoint x="474.75" y="167.88" />
              <mxPoint x="474.75" y="167.88" />
            </Array>
          </mxGeometry>
        </mxCell>
        <mxCell id="CVCE-VI5YOW8EWNLWMZx-12" value="" style="endArrow=none;html=1;rounded=0;edgeStyle=orthogonalEdgeStyle;strokeColor=#7EA6E0;strokeWidth=2;startArrow=classic;startFill=1;endFill=0;entryX=0;entryY=0.25;entryDx=0;entryDy=0;" edge="1" parent="1" target="CVCE-VI5YOW8EWNLWMZx-10">
          <mxGeometry x="150" y="70" as="geometry">
            <mxPoint x="265" y="167.88" as="sourcePoint" />
            <mxPoint x="320" y="167.38" as="targetPoint" />
            <Array as="points">
              <mxPoint x="335" y="168" />
            </Array>
          </mxGeometry>
        </mxCell>
        <mxCell id="CVCE-VI5YOW8EWNLWMZx-13" value="ACK: 1" style="rounded=0;whiteSpace=wrap;html=1;strokeColor=#7EA6E0;strokeWidth=2;" vertex="1" parent="1">
          <mxGeometry x="335" y="220.5" width="120" height="20" as="geometry" />
        </mxCell>
        <mxCell id="CVCE-VI5YOW8EWNLWMZx-14" value="" style="endArrow=classic;html=1;rounded=0;edgeStyle=orthogonalEdgeStyle;strokeColor=#7EA6E0;strokeWidth=2;" edge="1" parent="1">
          <mxGeometry x="150" y="99.5" as="geometry">
            <mxPoint x="454.75" y="230.5" as="sourcePoint" />
            <mxPoint x="509.75" y="230" as="targetPoint" />
            <Array as="points">
              <mxPoint x="474.75" y="230.5" />
              <mxPoint x="474.75" y="230.5" />
            </Array>
          </mxGeometry>
        </mxCell>
        <mxCell id="CVCE-VI5YOW8EWNLWMZx-15" value="" style="line;strokeWidth=2;html=1;labelBorderColor=#3399FF;strokeColor=#7EA6E0;" vertex="1" parent="1">
          <mxGeometry x="264" y="225.5" width="70" height="10" as="geometry" />
        </mxCell>
        <mxCell id="CVCE-VI5YOW8EWNLWMZx-16" value="SYN: 1" style="rounded=0;whiteSpace=wrap;html=1;strokeColor=#7EA6E0;strokeWidth=2;" vertex="1" parent="1">
          <mxGeometry x="334" y="190" width="120" height="20" as="geometry" />
        </mxCell>
        <mxCell id="CVCE-VI5YOW8EWNLWMZx-17" value="" style="endArrow=none;html=1;rounded=0;edgeStyle=orthogonalEdgeStyle;strokeColor=#7EA6E0;strokeWidth=2;endFill=0;" edge="1" parent="1">
          <mxGeometry x="149" y="102.12" as="geometry">
            <mxPoint x="453.75" y="200" as="sourcePoint" />
            <mxPoint x="508.75" y="199.5" as="targetPoint" />
            <Array as="points">
              <mxPoint x="473.75" y="200" />
              <mxPoint x="473.75" y="200" />
            </Array>
          </mxGeometry>
        </mxCell>
        <mxCell id="CVCE-VI5YOW8EWNLWMZx-18" value="" style="endArrow=none;html=1;rounded=0;edgeStyle=orthogonalEdgeStyle;strokeColor=#7EA6E0;strokeWidth=2;startArrow=classic;startFill=1;endFill=0;entryX=0;entryY=0.25;entryDx=0;entryDy=0;" edge="1" parent="1" target="CVCE-VI5YOW8EWNLWMZx-16">
          <mxGeometry x="149" y="102.12" as="geometry">
            <mxPoint x="264" y="200" as="sourcePoint" />
            <mxPoint x="319" y="199.5" as="targetPoint" />
            <Array as="points">
              <mxPoint x="334" y="200.12" />
            </Array>
          </mxGeometry>
        </mxCell>
      </root>
    </mxGraphModel>
  </diagram>
</mxfile>
